<svg xmlns="http://www.w3.org/2000/svg" viewBox="0 0 120 120" width="120" height="120">
  <!-- No background - transparent -->

  <!-- Body (overalls) -->
  <ellipse cx="60" cy="96" rx="30" ry="22" fill="#3b6ff5"/>

  <!-- Head -->
  <circle cx="60" cy="52" r="36" fill="#FFD93D"/>

  <!-- Ear bumps -->
  <circle cx="24" cy="50" r="7" fill="#F5C518"/>
  <circle cx="96" cy="50" r="7" fill="#F5C518"/>

  <!-- Goggle strap - grey band -->
  <rect x="24" y="38" width="72" height="22" rx="11" fill="#555566"/>

  <!-- Goggle glass -->
  <circle cx="60" cy="49" r="14" fill="white"/>
  <!-- Iris -->
  <circle cx="60" cy="49" r="10" fill="#4A9EFF"/>
  <!-- Pupil -->
  <circle cx="60" cy="49" r="5" fill="#111122"/>
  <!-- Shine 1 -->
  <circle cx="64" cy="44" r="2.5" fill="white"/>
  <!-- Shine 2 -->
  <circle cx="57" cy="52" r="1.2" fill="white" opacity="0.7"/>
  <!-- Goggle rim -->
  <circle cx="60" cy="49" r="14" fill="none" stroke="#333344" stroke-width="2"/>

  <!-- Goggle strap bolts -->
  <circle cx="28" cy="49" r="3" fill="#444455"/>
  <circle cx="92" cy="49" r="3" fill="#444455"/>

  <!-- Cheeks blush -->
  <ellipse cx="30" cy="68" rx="9" ry="6" fill="#FFB347" opacity="0.45"/>
  <ellipse cx="90" cy="68" rx="9" ry="6" fill="#FFB347" opacity="0.45"/>

  <!-- Smile -->
  <path d="M42 72 Q60 86 78 72" stroke="#5C3A1E" stroke-width="3" fill="#FF8C69" stroke-linecap="round" stroke-linejoin="round"/>
  <!-- Teeth -->
  <rect x="51" y="73" width="8" height="7" rx="2" fill="white"/>
  <rect x="61" y="73" width="8" height="7" rx="2" fill="white"/>
  <!-- Tooth gap line -->
  <line x1="60" y1="73" x2="60" y2="80" stroke="#ddd" stroke-width="1"/>

  <!-- Overall bib -->
  <rect x="44" y="84" width="32" height="26" rx="4" fill="#2d5de0"/>
  <!-- K on overalls -->
  <text x="60" y="103" text-anchor="middle" fill="white" font-size="14" font-weight="800"
    font-family="'JetBrains Mono', 'Courier New', monospace" letter-spacing="0">K</text>

  <!-- Overall straps -->
  <rect x="48" y="76" width="8" height="14" rx="4" fill="#2d5de0"/>
  <rect x="64" y="76" width="8" height="14" rx="4" fill="#2d5de0"/>

  <!-- Strap buttons -->
  <circle cx="52" cy="80" r="2" fill="#60a5fa"/>
  <circle cx="68" cy="80" r="2" fill="#60a5fa"/>

  <!-- Little arms -->
  <ellipse cx="22" cy="86" rx="7" ry="11" rx="7" fill="#FFD93D" transform="rotate(-15 22 86)"/>
  <ellipse cx="98" cy="86" rx="7" ry="11" fill="#FFD93D" transform="rotate(15 98 86)"/>
</svg>